PathFileType	4	(x/y/z)	S05_PSF_T03
DataRate	CameraRate	NumFrames	NumMarkers	Units	OrigDataRate	OrigDataStartFrame	OrigNumFrames
240	240	11	50	mm	240	359	410
Frame#	Time	Sternum			R.Acromium			L.Acromium			Top.Head			R.ASIS			L.ASIS			R.PSIS			L.PSIS			R.Great.Tro			L.Great.Tro			R.Iliac.Crest			L.Iliac.Crest			V.Sacral			R.Thigh.Upper.Post			R.Thigh.Lower.Ant			R.Thigh.Lower.Post			R.Thigh.Upper.Ant			R.Knee.Lat			R.Knee.Med			R.Shank.Upper.Post			R.Shank.Lower.Ant			R.Shank.Lower.Post			R.Shank.Upper.Ant			R.Ankle.Lat			R.Ankle.Med			R.Heel.Upper			R.Heel.Med			R.Heel.Lat			R.Toe.Lat			R.Toe.Med			R.Toe.Tip			L.Thigh.Upper.Post			L.Thigh.Lower.Ant			L.Thigh.Lower.Post			L.Thigh.Upper.Ant			L.Knee.Lat			L.Shank.Upper.Post			L.Shank.Lower.Ant			L.Shank.Lower.Post			L.Shank.Upper.Ant			L.Ankle.Lat			L.Ankle.Med			L.Heel.Upper			L.Heel.Med			L.Heel.Lat			L.Toe.Lat			L.Toe.Med			L.Toe.Tip			Cervical.Spine			Back			
		X1	Y1	Z1	X2	Y2	Z2	X3	Y3	Z3	X4	Y4	Z4	X5	Y5	Z5	X6	Y6	Z6	X7	Y7	Z7	X8	Y8	Z8	X9	Y9	Z9	X10	Y10	Z10	X11	Y11	Z11	X12	Y12	Z12	X13	Y13	Z13	X14	Y14	Z14	X15	Y15	Z15	X16	Y16	Z16	X17	Y17	Z17	X18	Y18	Z18	X19	Y19	Z19	X20	Y20	Z20	X21	Y21	Z21	X22	Y22	Z22	X23	Y23	Z23	X24	Y24	Z24	X25	Y25	Z25	X26	Y26	Z26	X27	Y27	Z27	X28	Y28	Z28	X29	Y29	Z29	X30	Y30	Z30	X31	Y31	Z31	X32	Y32	Z32	X33	Y33	Z33	X34	Y34	Z34	X35	Y35	Z35	X36	Y36	Z36	X37	Y37	Z37	X38	Y38	Z38	X39	Y39	Z39	X40	Y40	Z40	X41	Y41	Z41	X42	Y42	Z42	X43	Y43	Z43	X44	Y44	Z44	X45	Y45	Z45	X46	Y46	Z46	X47	Y47	Z47	X48	Y48	Z48	X49	Y49	Z49	X50	Y50	Z50	

359	1.4917	517.61	1271	258.78	420.99	1534.3	405.82	417.97	1544.9	81.01	436.86	1840.7	236.64	452.21	1019.2	382.42	457.73	1023.4	132.23	252.58	1035.3	296.23	255.55	1042.1	204.78	377.44	936.97	448.89	362.19	946.01	61.011	360.85	1103.4	422.1	369.66	1102.2	86.165	241.21	1003	261.28	501.19	744.06	456.94	575.89	694.31	407.9	521.63	657	439.41	550.81	779.23	424.37	538.43	558.66	418.49	561.18	547.3	289.31	458.31	322.03	389.66	517.14	255.53	402.21	460.07	246.87	373.74	516.51	331.97	416.81	506.66	148.91	382.75	531.61	176.1	299.08	451.85	92.805	307.72	472.09	64.002	282.27	455.62	63.679	344.9	603.82	64.289	431.98	661.29	84.163	326.02	705.77	113.63	383.45	337.63	711	72.099	409.1	629.76	95.939	337.46	616.63	92.402	415.6	718.4	75.347	335.32	522.62	103.37	250.21	328.47	112.12	311.86	264.35	113.96	242.88	258	132.69	315.56	333.91	99.266	262.99	114.07	143.89	303.72	133.24	226.81	205.9	69.728	202.89	220.94	45.184	235.05	207.66	40.89	175.33	386.9	34.816	112.04	414.8	57.616	228.64	474.89	64.698	171.21	373.12	1577.9	246.96	257.39	1304.1	246.94
360	1.4958	522.75	1270.4	258.75	426.19	1533.6	405.91	423.19	1544.4	81.135	442.07	1840	236.91	457.65	1018.6	382.32	462.59	1022.9	132.14	257.85	1034.9	296.7	260.64	1041.8	205.29	382.99	936.29	448.96	366.58	945.75	61.157	366.57	1102.8	422.26	374.42	1101.7	86.338	246.36	1002.6	261.75	506.14	742.98	456.45	580.61	693.15	407.16	526.35	655.9	438.74	555.74	778.1	423.81	543.53	557.75	417.5	566.16	546.56	288.13	469.54	319.14	389.42	530.12	254.4	402.35	473.39	244.02	373.79	527.34	330.83	416.64	522.95	147.3	383.34	547.11	174.8	299.63	469.8	89.436	308.46	490.81	61.131	283.11	474.24	60.592	345.7	622.27	65.478	432.93	679.35	86.495	327.05	722.96	117.33	384.41	340.51	711	72.277	411.64	629.41	95.956	339.87	616.66	92.565	418.58	717.95	75.343	336.99	522.61	103.54	251.06	328.79	112.36	312.45	264.43	114.02	243.49	258.35	132.93	316.4	333.98	99.352	263.19	114.19	144.02	304.04	133.22	226.92	206	69.843	202.98	221	45.249	235.11	207.72	41.034	175.39	386.93	34.743	112.01	414.88	57.416	228.65	475	64.461	171.21	378.34	1577.3	247.05	262.57	1303.5	247.12
361	1.5	527.91	1269.7	258.73	431.41	1532.9	406.01	428.43	1543.8	81.276	447.28	1839.4	237.2	463.12	1017.9	382.24	467.49	1022.3	132.08	263.15	1034.5	297.18	265.75	1041.4	205.81	388.55	935.56	449.02	371	945.47	61.306	372.3	1102.2	422.44	379.22	1101.2	86.523	251.53	1002.3	262.23	511.01	741.79	455.96	585.24	691.86	406.42	530.97	654.7	438.07	560.61	776.84	423.24	548.55	556.76	416.5	571.03	545.73	286.91	480.73	316.35	389.23	543.03	253.42	402.5	486.66	241.32	373.91	538.11	329.78	416.48	539.18	145.93	383.96	562.53	173.71	300.2	487.71	86.36	309.25	509.47	58.563	284	492.81	57.809	346.56	640.6	66.951	433.86	697.22	89.089	328.04	739.96	121.28	385.31	343.42	710.99	72.462	414.18	629.06	95.992	342.31	616.68	92.735	421.58	717.49	75.344	338.68	522.59	103.71	251.91	329.12	112.61	313.04	264.51	114.08	244.11	258.71	133.18	317.24	334.06	99.441	263.4	114.33	144.16	304.36	133.2	227.04	206.1	69.958	203.06	221.05	45.322	235.18	207.78	41.184	175.45	386.97	34.67	111.98	414.95	57.211	228.66	475.11	64.217	171.22	383.57	1576.7	247.16	267.78	1302.9	247.33
362	1.5042	533.09	1269	258.73	436.64	1532.1	406.14	433.67	1543.2	81.434	452.51	1838.7	237.5	468.59	1017.2	382.17	472.41	1021.7	132.04	268.47	1034	297.66	270.89	1041.1	206.33	394.11	934.76	449.08	375.46	945.17	61.455	378.06	1101.5	422.62	384.04	1100.6	86.721	256.72	1001.8	262.7	515.82	740.51	455.46	589.79	690.44	405.66	535.49	653.39	437.4	565.43	775.46	422.66	553.5	555.69	415.49	575.8	544.81	285.67	491.89	313.67	389.11	555.86	252.6	402.68	499.89	238.78	374.08	548.82	328.83	416.34	555.32	144.79	384.6	577.82	172.84	300.79	505.54	83.578	310.11	528.02	56.3	284.93	511.32	55.333	347.48	658.8	68.704	434.77	714.88	91.936	328.98	756.73	125.45	386.13	346.36	710.97	72.652	416.74	628.69	96.049	344.77	616.69	92.912	424.6	717.02	75.352	340.39	522.58	103.89	252.78	329.47	112.87	313.64	264.6	114.14	244.75	259.08	133.43	318.1	334.14	99.532	263.61	114.46	144.3	304.69	133.18	227.17	206.2	70.072	203.16	221.09	45.402	235.25	207.85	41.338	175.51	387	34.598	111.95	415.03	57	228.67	475.22	63.966	171.22	388.8	1576	247.29	272.99	1302.3	247.54
363	1.5083	538.28	1268.2	258.74	441.89	1531.4	406.28	438.92	1542.6	81.609	457.74	1837.9	237.81	474.08	1016.4	382.12	477.36	1021.1	132.02	273.8	1033.5	298.14	276.04	1040.7	206.85	399.68	933.9	449.14	379.95	944.86	61.606	383.83	1100.8	422.81	388.89	1100	86.931	261.94	1001.4	263.17	520.58	739.13	454.95	594.26	688.91	404.9	539.94	651.98	436.73	570.2	773.98	422.06	558.39	554.56	414.5	580.49	543.8	284.41	502.99	311.11	389.04	568.59	251.94	402.89	513.04	236.42	374.32	559.45	327.98	416.22	571.36	143.89	385.26	592.98	172.17	301.39	523.26	81.089	311.03	546.44	54.34	285.89	529.72	53.163	348.46	676.83	70.731	435.65	732.3	95.027	329.86	773.28	129.85	386.86	349.33	710.95	72.846	419.32	628.3	96.129	347.26	616.7	93.094	427.65	716.54	75.364	342.14	522.57	104.07	253.67	329.82	113.14	314.25	264.69	114.21	245.4	259.46	133.7	318.97	334.23	99.627	263.83	114.6	144.45	305.03	133.16	227.29	206.31	70.186	203.26	221.13	45.487	235.34	207.91	41.497	175.58	387.03	34.527	111.92	415.12	56.784	228.68	475.34	63.705	171.22	394.04	1575.3	247.44	278.22	1301.6	247.78
364	1.5125	543.49	1267.4	258.76	447.16	1530.5	406.44	444.17	1541.9	81.804	462.98	1837.2	238.13	479.58	1015.6	382.09	482.34	1020.5	132.02	279.16	1032.9	298.63	281.22	1040.3	207.38	405.26	932.98	449.19	384.47	944.52	61.757	389.6	1100	423.01	393.78	1099.4	87.154	267.18	1000.9	263.64	525.29	737.67	454.44	598.67	687.27	404.12	544.32	650.49	436.06	574.93	772.4	421.45	563.24	553.36	413.51	585.1	542.72	283.13	514.03	308.67	389.04	581.22	251.43	403.11	526.1	234.22	374.61	569.99	327.23	416.12	587.26	143.23	385.94	607.98	171.72	302	540.85	78.891	312	564.69	52.678	286.89	547.99	51.297	349.48	694.67	73.021	436.5	749.45	98.347	330.68	789.56	134.45	387.5	352.33	710.91	73.041	421.9	627.89	96.233	349.78	616.7	93.282	430.73	716.05	75.38	343.92	522.55	104.25	254.58	330.17	113.42	314.87	264.78	114.27	246.06	259.85	133.98	319.85	334.32	99.725	264.06	114.75	144.61	305.39	133.15	227.42	206.42	70.3	203.37	221.17	45.576	235.43	207.98	41.66	175.66	387.07	34.457	111.89	415.21	56.563	228.69	475.46	63.436	171.22	399.28	1574.5	247.61	283.46	1300.8	248.02
365	1.5167	548.71	1266.6	258.81	452.44	1529.7	406.62	449.42	1541.2	82.018	468.22	1836.4	238.47	485.09	1014.7	382.08	487.34	1019.9	132.04	284.52	1032.3	299.12	286.42	1039.8	207.91	410.83	932	449.23	389.02	944.17	61.907	395.36	1099.2	423.22	398.69	1098.8	87.389	272.44	1000.3	264.11	529.97	736.13	453.93	603.03	685.54	403.34	548.65	648.91	435.4	579.63	770.73	420.83	568.06	552.12	412.53	589.64	541.57	281.84	525	306.35	389.09	593.73	251.07	403.35	539.05	232.2	374.97	580.45	326.58	416.03	603	142.79	386.63	622.8	171.46	302.62	558.27	76.977	313.01	582.74	51.307	287.92	566.09	49.728	350.55	712.3	75.56	437.3	766.31	101.88	331.43	805.56	139.23	388.03	355.37	710.87	73.236	424.51	627.46	96.36	352.34	616.69	93.473	433.84	715.54	75.401	345.74	522.53	104.43	255.51	330.53	113.71	315.52	264.88	114.35	246.75	260.24	134.26	320.77	334.41	99.827	264.29	114.91	144.78	305.75	133.14	227.56	206.53	70.414	203.49	221.21	45.667	235.54	208.06	41.828	175.74	387.1	34.389	111.86	415.3	56.337	228.7	475.58	63.156	171.22	404.52	1573.7	247.81	288.71	1300	248.28
366	1.5208	553.95	1265.8	258.87	457.74	1528.8	406.82	454.67	1540.4	82.254	473.48	1835.5	238.82	490.61	1013.8	382.09	492.36	1019.2	132.08	289.9	1031.6	299.61	291.64	1039.3	208.45	416.42	930.96	449.27	393.61	943.79	62.057	401.11	1098.3	423.44	403.63	1098.1	87.637	277.72	999.75	264.58	534.63	734.53	453.42	607.34	683.72	402.54	552.94	647.26	434.75	584.31	768.98	420.19	572.85	550.84	411.57	594.13	540.35	280.54	535.87	304.17	389.21	606.1	250.85	403.6	551.88	230.35	375.37	590.8	326.04	415.96	618.56	142.57	387.32	637.4	171.4	303.25	575.47	75.337	314.06	600.56	50.215	288.97	584	48.445	351.65	729.68	78.329	438.05	782.86	105.6	332.1	821.25	144.17	388.47	358.46	710.81	73.43	427.14	627.01	96.508	354.93	616.67	93.667	436.98	715.02	75.426	347.6	522.51	104.62	256.47	330.89	114.01	316.19	264.98	114.43	247.46	260.64	134.55	321.71	334.5	99.933	264.53	115.07	144.95	306.12	133.13	227.71	206.65	70.529	203.61	221.25	45.759	235.65	208.13	41.999	175.82	387.14	34.325	111.84	415.4	56.105	228.72	475.71	62.866	171.22	409.77	1572.9	248.03	293.98	1299.2	248.55
367	1.525	559.21	1264.9	258.94	463.04	1527.9	407.04	459.92	1539.7	82.511	478.74	1834.7	239.2	496.15	1012.9	382.11	497.41	1018.5	132.14	295.29	1030.9	300.1	296.87	1038.8	208.99	422.01	929.87	449.31	398.23	943.4	62.207	406.84	1097.4	423.67	408.6	1097.5	87.897	283.02	999.11	265.04	539.28	732.87	452.92	611.63	681.83	401.74	557.21	645.55	434.11	588.97	767.16	419.53	577.64	549.52	410.64	598.57	539.08	279.25	546.65	302.11	389.38	618.32	250.78	403.87	564.56	228.68	375.83	601.04	325.59	415.91	633.9	142.55	388.01	651.77	171.51	303.87	592.44	73.959	315.14	618.1	49.388	290.03	601.67	47.436	352.78	746.78	81.306	438.75	799.06	109.49	332.68	836.62	149.24	388.79	361.59	710.73	73.623	429.79	626.54	96.672	357.57	616.63	93.863	440.17	714.49	75.453	349.51	522.47	104.81	257.48	331.26	114.31	316.89	265.07	114.52	248.2	261.04	134.84	322.68	334.59	100.04	264.78	115.23	145.13	306.5	133.13	227.86	206.77	70.645	203.75	221.29	45.85	235.76	208.21	42.175	175.92	387.18	34.264	111.82	415.51	55.868	228.74	475.84	62.563	171.22	415.02	1572.1	248.27	299.26	1298.3	248.83
368	1.5292	564.48	1264	259.04	468.36	1526.9	407.28	465.17	1538.9	82.792	484.01	1833.8	239.59	501.69	1011.9	382.15	502.48	1017.8	132.21	300.69	1030.1	300.6	302.13	1038.2	209.53	427.61	928.73	449.34	402.88	942.98	62.355	412.55	1096.4	423.91	413.6	1096.8	88.169	288.34	998.42	265.51	543.94	731.17	452.41	615.9	679.9	400.94	561.48	643.8	433.49	593.64	765.3	418.87	582.43	548.18	409.72	602.97	537.76	277.98	557.31	300.19	389.61	630.36	250.83	404.14	577.07	227.17	376.33	611.17	325.24	415.87	648.99	142.73	388.7	665.88	171.78	304.48	609.13	72.828	316.23	635.33	48.808	291.1	619.07	46.684	353.93	763.57	84.463	439.39	814.88	113.52	333.16	851.64	154.41	389	364.77	710.64	73.814	432.49	626.05	96.848	360.26	616.58	94.059	443.39	713.94	75.483	351.48	522.42	105.01	258.52	331.62	114.61	317.62	265.16	114.61	248.98	261.44	135.14	323.7	334.66	100.16	265.05	115.4	145.33	306.9	133.13	228.03	206.89	70.764	203.9	221.34	45.94	235.89	208.29	42.355	176.02	387.22	34.208	111.8	415.63	55.625	228.76	475.98	62.249	171.23	420.28	1571.2	248.53	304.55	1297.4	249.12
369	1.5333	569.77	1263.1	259.15	473.69	1526	407.54	470.41	1538.1	83.097	489.28	1832.9	240	507.25	1010.9	382.21	507.57	1017	132.29	306.09	1029.3	301.1	307.4	1037.6	210.08	433.23	927.54	449.37	407.56	942.53	62.503	418.23	1095.4	424.15	418.62	1096	88.451	293.67	997.68	265.97	548.62	729.44	451.92	620.18	677.92	400.13	565.76	642.02	432.89	598.31	763.39	418.19	587.25	546.83	408.84	607.36	536.4	276.73	567.84	298.4	389.89	642.23	251	404.41	589.4	225.82	376.87	621.17	324.97	415.85	663.81	143.08	389.37	679.69	172.2	305.08	625.5	71.927	317.33	652.22	48.455	292.17	636.15	46.169	355.07	780.02	87.769	439.96	830.31	117.65	333.54	866.28	159.65	389.1	368.01	710.52	74.002	435.23	625.54	97.033	363.01	616.52	94.255	446.67	713.38	75.515	353.5	522.36	105.2	259.61	331.98	114.92	318.4	265.24	114.71	249.8	261.85	135.44	324.76	334.73	100.29	265.32	115.58	145.53	307.31	133.13	228.22	207.03	70.886	204.06	221.4	46.029	236.03	208.37	42.538	176.13	387.26	34.157	111.79	415.76	55.375	228.79	476.12	61.921	171.24	425.54	1570.2	248.82	309.86	1296.5	249.42
